<?xml version="1.0" encoding="UTF-8" ?>
<svg version="1.1" width="196" height="64" xmlns="http://www.w3.org/2000/svg" shape-rendering="crispEdges">
<rect x="35" y="16" width="3" height="1" fill="#553C27" />
<rect x="21" y="17" width="1" height="1" fill="#755336" />
<rect x="22" y="17" width="1" height="1" fill="#62462D" />
<rect x="23" y="17" width="2" height="1" fill="#7A5738" />
<rect x="34" y="17" width="1" height="1" fill="#553C27" />
<rect x="35" y="17" width="2" height="1" fill="#6F6E71" />
<rect x="37" y="17" width="1" height="1" fill="#F4CCA1" />
<rect x="38" y="17" width="1" height="1" fill="#553C27" />
<rect x="58" y="17" width="21" height="1" fill="#F0D29D" />
<rect x="84" y="17" width="8" height="1" fill="#F0D29D" />
<rect x="93" y="17" width="8" height="1" fill="#F0D29D" />
<rect x="20" y="18" width="1" height="1" fill="#755336" />
<rect x="21" y="18" width="1" height="1" fill="#F7E0B7" />
<rect x="22" y="18" width="1" height="1" fill="#E3C390" />
<rect x="23" y="18" width="2" height="1" fill="#F7E0B7" />
<rect x="25" y="18" width="1" height="1" fill="#7A5738" />
<rect x="34" y="18" width="1" height="1" fill="#2A2D30" />
<rect x="35" y="18" width="2" height="1" fill="#2D3339" />
<rect x="37" y="18" width="1" height="1" fill="#6F6E71" />
<rect x="38" y="18" width="1" height="1" fill="#D6A55C" />
<rect x="39" y="18" width="1" height="1" fill="#755336" />
<rect x="58" y="18" width="1" height="32" fill="#F0D29D" />
<rect x="59" y="18" width="19" height="1" fill="#D29F56" />
<rect x="78" y="18" width="1" height="4" fill="#F0D29D" />
<rect x="84" y="18" width="1" height="32" fill="#F0D29D" />
<rect x="85" y="18" width="6" height="1" fill="#D29F56" />
<rect x="91" y="18" width="1" height="32" fill="#F0D29D" />
<rect x="93" y="18" width="1" height="32" fill="#F0D29D" />
<rect x="94" y="18" width="6" height="1" fill="#D29F56" />
<rect x="100" y="18" width="1" height="16" fill="#F0D29D" />
<rect x="19" y="19" width="1" height="1" fill="#755336" />
<rect x="20" y="19" width="1" height="1" fill="#E3C390" />
<rect x="21" y="19" width="2" height="1" fill="#474A52" />
<rect x="23" y="19" width="2" height="1" fill="#2D3339" />
<rect x="25" y="19" width="1" height="1" fill="#E3C390" />
<rect x="26" y="19" width="2" height="1" fill="#755336" />
<rect x="33" y="19" width="1" height="1" fill="#6A4B31" />
<rect x="34" y="19" width="3" height="1" fill="#4C4E56" />
<rect x="37" y="19" width="1" height="1" fill="#2D3339" />
<rect x="38" y="19" width="1" height="2" fill="#C59958" />
<rect x="39" y="19" width="1" height="1" fill="#553C27" />
<rect x="59" y="19" width="1" height="30" fill="#D29F56" />
<rect x="60" y="19" width="17" height="4" fill="#FFFFFF" />
<rect x="77" y="19" width="1" height="4" fill="#D29F56" />
<rect x="85" y="19" width="1" height="5" fill="#D29F56" />
<rect x="86" y="19" width="4" height="4" fill="#FFFFFF" />
<rect x="90" y="19" width="1" height="5" fill="#D29F56" />
<rect x="94" y="19" width="1" height="30" fill="#D29F56" />
<rect x="95" y="19" width="4" height="29" fill="#FFFFFF" />
<rect x="99" y="19" width="1" height="16" fill="#D29F56" />
<rect x="18" y="20" width="1" height="1" fill="#755336" />
<rect x="19" y="20" width="1" height="4" fill="#E3C390" />
<rect x="20" y="20" width="1" height="1" fill="#6F6E71" />
<rect x="21" y="20" width="2" height="7" fill="#4C4E56" />
<rect x="23" y="20" width="1" height="1" fill="#474A52" />
<rect x="24" y="20" width="2" height="1" fill="#2D3339" />
<rect x="26" y="20" width="1" height="1" fill="#F7E0B7" />
<rect x="27" y="20" width="1" height="1" fill="#CF9D53" />
<rect x="28" y="20" width="1" height="1" fill="#6A4B31" />
<rect x="30" y="20" width="3" height="1" fill="#6A4B31" />
<rect x="33" y="20" width="1" height="1" fill="#8A653F" />
<rect x="34" y="20" width="1" height="5" fill="#D9A761" />
<rect x="35" y="20" width="3" height="2" fill="#D6A55C" />
<rect x="39" y="20" width="1" height="1" fill="#C59958" />
<rect x="40" y="20" width="1" height="1" fill="#583E28" />
<rect x="18" y="21" width="1" height="4" fill="#43352A" />
<rect x="20" y="21" width="1" height="4" fill="#4C4E56" />
<rect x="23" y="21" width="1" height="1" fill="#4C4E56" />
<rect x="24" y="21" width="1" height="1" fill="#474A52" />
<rect x="25" y="21" width="2" height="1" fill="#2D3339" />
<rect x="27" y="21" width="1" height="2" fill="#F7E0B7" />
<rect x="28" y="21" width="1" height="4" fill="#CF9D53" />
<rect x="29" y="21" width="1" height="1" fill="#6A4B31" />
<rect x="30" y="21" width="3" height="1" fill="#8A653F" />
<rect x="33" y="21" width="1" height="8" fill="#D9A761" />
<rect x="38" y="21" width="1" height="1" fill="#D6A55C" />
<rect x="39" y="21" width="2" height="1" fill="#B68B52" />
<rect x="41" y="21" width="1" height="1" fill="#583E28" />
<rect x="79" y="21" width="4" height="1" fill="#F0D29D" />
<rect x="23" y="22" width="1" height="1" fill="#474A52" />
<rect x="24" y="22" width="1" height="1" fill="#6F6E71" />
<rect x="25" y="22" width="1" height="5" fill="#474A52" />
<rect x="26" y="22" width="1" height="2" fill="#2D3339" />
<rect x="29" y="22" width="1" height="5" fill="#906940" />
<rect x="30" y="22" width="2" height="1" fill="#8A653F" />
<rect x="32" y="22" width="1" height="1" fill="#D9A761" />
<rect x="35" y="22" width="1" height="2" fill="#D9A761" />
<rect x="36" y="22" width="2" height="2" fill="#D6A55C" />
<rect x="38" y="22" width="1" height="1" fill="#D29F56" />
<rect x="39" y="22" width="1" height="1" fill="#D6A55C" />
<rect x="40" y="22" width="2" height="1" fill="#B68B52" />
<rect x="42" y="22" width="1" height="1" fill="#583E28" />
<rect x="78" y="22" width="4" height="1" fill="#D29F56" />
<rect x="82" y="22" width="1" height="7" fill="#F0D29D" />
<rect x="23" y="23" width="1" height="5" fill="#4C4E56" />
<rect x="24" y="23" width="1" height="1" fill="#474A52" />
<rect x="27" y="23" width="1" height="5" fill="#2D3339" />
<rect x="30" y="23" width="1" height="1" fill="#8A653F" />
<rect x="31" y="23" width="2" height="2" fill="#D6A55C" />
<rect x="38" y="23" width="1" height="1" fill="#D6A55C" />
<rect x="39" y="23" width="1" height="7" fill="#D29F56" />
<rect x="40" y="23" width="2" height="1" fill="#D6A55C" />
<rect x="42" y="23" width="1" height="2" fill="#C59958" />
<rect x="43" y="23" width="1" height="1" fill="#6A4B31" />
<rect x="51" y="23" width="2" height="1" fill="#F1D29D" />
<rect x="60" y="23" width="4" height="25" fill="#FFFFFF" />
<rect x="64" y="23" width="13" height="1" fill="#D29F56" />
<rect x="77" y="23" width="4" height="4" fill="#FFFFFF" />
<rect x="81" y="23" width="1" height="5" fill="#D29F56" />
<rect x="86" y="23" width="4" height="1" fill="#D29F56" />
<rect x="19" y="24" width="1" height="1" fill="#E3C291" />
<rect x="24" y="24" width="1" height="5" fill="#4C4E56" />
<rect x="26" y="24" width="1" height="5" fill="#474A52" />
<rect x="30" y="24" width="1" height="2" fill="#D6A55C" />
<rect x="35" y="24" width="2" height="1" fill="#D5B784" />
<rect x="37" y="24" width="2" height="1" fill="#D29F56" />
<rect x="40" y="24" width="1" height="5" fill="#D29F56" />
<rect x="41" y="24" width="1" height="1" fill="#B68B52" />
<rect x="43" y="24" width="1" height="1" fill="#866543" />
<rect x="44" y="24" width="1" height="2" fill="#483321" />
<rect x="49" y="24" width="2" height="1" fill="#F1D29D" />
<rect x="64" y="24" width="1" height="3" fill="#D29F56" />
<rect x="65" y="24" width="11" height="2" fill="#F0D29D" />
<rect x="76" y="24" width="1" height="3" fill="#D29F56" />
<rect x="85" y="24" width="6" height="2" fill="#F0D29D" />
<rect x="19" y="25" width="1" height="1" fill="#43352A" />
<rect x="20" y="25" width="1" height="2" fill="#E3C390" />
<rect x="28" y="25" width="1" height="3" fill="#906940" />
<rect x="31" y="25" width="1" height="2" fill="#D6A55C" />
<rect x="32" y="25" width="1" height="1" fill="#D9A761" />
<rect x="34" y="25" width="1" height="1" fill="#D5B784" />
<rect x="35" y="25" width="2" height="1" fill="#19120E" />
<rect x="37" y="25" width="1" height="1" fill="#D6A55C" />
<rect x="38" y="25" width="1" height="5" fill="#D29F56" />
<rect x="41" y="25" width="1" height="4" fill="#D29F56" />
<rect x="42" y="25" width="2" height="1" fill="#B68B52" />
<rect x="48" y="25" width="1" height="1" fill="#F1D29D" />
<rect x="106" y="25" width="8" height="1" fill="#F0D29D" />
<rect x="115" y="25" width="8" height="1" fill="#F0D29D" />
<rect x="132" y="25" width="8" height="1" fill="#F0D29D" />
<rect x="19" y="26" width="1" height="1" fill="#19120E" />
<rect x="30" y="26" width="1" height="5" fill="#B78549" />
<rect x="32" y="26" width="1" height="1" fill="#B78549" />
<rect x="34" y="26" width="1" height="2" fill="#19120E" />
<rect x="35" y="26" width="1" height="1" fill="#2F2B2A" />
<rect x="36" y="26" width="1" height="1" fill="#F6EEE1" />
<rect x="37" y="26" width="1" height="2" fill="#19120E" />
<rect x="42" y="26" width="1" height="2" fill="#D29F56" />
<rect x="43" y="26" width="2" height="2" fill="#E0B169" />
<rect x="45" y="26" width="1" height="1" fill="#5A4029" />
<rect x="47" y="26" width="1" height="1" fill="#F1D29D" />
<rect x="65" y="26" width="11" height="1" fill="#D29F56" />
<rect x="85" y="26" width="6" height="1" fill="#D29F56" />
<rect x="106" y="26" width="1" height="4" fill="#F0D29D" />
<rect x="107" y="26" width="6" height="1" fill="#D29F56" />
<rect x="113" y="26" width="1" height="7" fill="#F0D29D" />
<rect x="115" y="26" width="1" height="20" fill="#F0D29D" />
<rect x="116" y="26" width="6" height="1" fill="#D29F56" />
<rect x="122" y="26" width="1" height="17" fill="#F0D29D" />
<rect x="132" y="26" width="1" height="17" fill="#F0D29D" />
<rect x="133" y="26" width="6" height="1" fill="#D29F56" />
<rect x="139" y="26" width="1" height="24" fill="#F0D29D" />
<rect x="20" y="27" width="1" height="1" fill="#43352A" />
<rect x="21" y="27" width="2" height="1" fill="#E3C390" />
<rect x="25" y="27" width="1" height="1" fill="#4C4E56" />
<rect x="29" y="27" width="1" height="3" fill="#B78549" />
<rect x="31" y="27" width="1" height="2" fill="#B78549" />
<rect x="32" y="27" width="1" height="4" fill="#D9A761" />
<rect x="35" y="27" width="2" height="2" fill="#19120E" />
<rect x="45" y="27" width="1" height="1" fill="#E0B169" />
<rect x="46" y="27" width="1" height="1" fill="#5A4029" />
<rect x="49" y="27" width="4" height="1" fill="#F1D29D" />
<rect x="64" y="27" width="13" height="4" fill="#FFFFFF" />
<rect x="77" y="27" width="4" height="1" fill="#D29F56" />
<rect x="85" y="27" width="1" height="22" fill="#D29F56" />
<rect x="86" y="27" width="4" height="21" fill="#FFFFFF" />
<rect x="90" y="27" width="1" height="22" fill="#D29F56" />
<rect x="107" y="27" width="1" height="4" fill="#D29F56" />
<rect x="108" y="27" width="4" height="4" fill="#FFFFFF" />
<rect x="112" y="27" width="1" height="5" fill="#D29F56" />
<rect x="116" y="27" width="1" height="18" fill="#D29F56" />
<rect x="117" y="27" width="4" height="17" fill="#FFFFFF" />
<rect x="121" y="27" width="1" height="17" fill="#D29F56" />
<rect x="133" y="27" width="1" height="17" fill="#D29F56" />
<rect x="134" y="27" width="4" height="21" fill="#FFFFFF" />
<rect x="138" y="27" width="1" height="22" fill="#D29F56" />
<rect x="21" y="28" width="2" height="1" fill="#43352A" />
<rect x="23" y="28" width="1" height="1" fill="#E3C390" />
<rect x="25" y="28" width="1" height="1" fill="#474A52" />
<rect x="27" y="28" width="1" height="1" fill="#C79955" />
<rect x="28" y="28" width="1" height="2" fill="#B78549" />
<rect x="34" y="28" width="1" height="1" fill="#E7B972" />
<rect x="37" y="28" width="1" height="2" fill="#D29F56" />
<rect x="42" y="28" width="1" height="4" fill="#F0D29D" />
<rect x="43" y="28" width="1" height="1" fill="#2F2319" />
<rect x="44" y="28" width="1" height="1" fill="#6F6A6D" />
<rect x="45" y="28" width="1" height="1" fill="#4C3928" />
<rect x="46" y="28" width="1" height="1" fill="#E0B169" />
<rect x="47" y="28" width="1" height="2" fill="#483321" />
<rect x="48" y="28" width="1" height="1" fill="#F1D29D" />
<rect x="77" y="28" width="1" height="4" fill="#D29F56" />
<rect x="78" y="28" width="4" height="1" fill="#F0D29D" />
<rect x="23" y="29" width="1" height="1" fill="#43352A" />
<rect x="24" y="29" width="3" height="1" fill="#C79955" />
<rect x="27" y="29" width="1" height="3" fill="#906940" />
<rect x="31" y="29" width="1" height="2" fill="#D9A761" />
<rect x="33" y="29" width="1" height="1" fill="#E7B972" />
<rect x="34" y="29" width="1" height="1" fill="#D9A761" />
<rect x="35" y="29" width="2" height="1" fill="#D29F56" />
<rect x="40" y="29" width="2" height="3" fill="#F0D29D" />
<rect x="43" y="29" width="2" height="1" fill="#4C3928" />
<rect x="45" y="29" width="1" height="1" fill="#2F2319" />
<rect x="46" y="29" width="1" height="2" fill="#F4CCA1" />
<rect x="78" y="29" width="1" height="4" fill="#F0D29D" />
<rect x="102" y="29" width="4" height="1" fill="#F0D29D" />
<rect x="22" y="30" width="1" height="1" fill="#62462D" />
<rect x="23" y="30" width="2" height="1" fill="#85633F" />
<rect x="25" y="30" width="1" height="2" fill="#B78549" />
<rect x="26" y="30" width="1" height="1" fill="#906940" />
<rect x="28" y="30" width="2" height="3" fill="#906940" />
<rect x="33" y="30" width="1" height="1" fill="#D9A761" />
<rect x="34" y="30" width="1" height="1" fill="#E7B972" />
<rect x="35" y="30" width="3" height="1" fill="#F1D29D" />
<rect x="38" y="30" width="2" height="1" fill="#A6885F" />
<rect x="43" y="30" width="1" height="2" fill="#F0D29D" />
<rect x="44" y="30" width="1" height="2" fill="#4C3928" />
<rect x="45" y="30" width="1" height="3" fill="#F4CCA1" />
<rect x="47" y="30" width="1" height="1" fill="#5A4029" />
<rect x="48" y="30" width="1" height="1" fill="#F1D29D" />
<rect x="102" y="30" width="1" height="4" fill="#F0D29D" />
<rect x="103" y="30" width="4" height="1" fill="#D29F56" />
<rect x="20" y="31" width="2" height="1" fill="#62462D" />
<rect x="22" y="31" width="2" height="1" fill="#85633F" />
<rect x="24" y="31" width="1" height="1" fill="#6E5136" />
<rect x="26" y="31" width="1" height="3" fill="#B78549" />
<rect x="30" y="31" width="1" height="1" fill="#906940" />
<rect x="31" y="31" width="2" height="1" fill="#B78549" />
<rect x="33" y="31" width="2" height="1" fill="#F1D29D" />
<rect x="35" y="31" width="1" height="1" fill="#D9A761" />
<rect x="36" y="31" width="3" height="1" fill="#A6885F" />
<rect x="39" y="31" width="1" height="1" fill="#F1D29D" />
<rect x="46" y="31" width="1" height="1" fill="#5A4029" />
<rect x="49" y="31" width="2" height="1" fill="#F1D29D" />
<rect x="64" y="31" width="13" height="1" fill="#D29F56" />
<rect x="103" y="31" width="1" height="4" fill="#D29F56" />
<rect x="104" y="31" width="4" height="4" fill="#FFFFFF" />
<rect x="108" y="31" width="4" height="1" fill="#D29F56" />
<rect x="18" y="32" width="1" height="1" fill="#704F33" />
<rect x="19" y="32" width="1" height="1" fill="#62462D" />
<rect x="20" y="32" width="3" height="1" fill="#85633F" />
<rect x="23" y="32" width="3" height="2" fill="#B78D54" />
<rect x="27" y="32" width="1" height="1" fill="#B78549" />
<rect x="30" y="32" width="2" height="1" fill="#B78549" />
<rect x="32" y="32" width="1" height="1" fill="#F1D29D" />
<rect x="33" y="32" width="2" height="1" fill="#D9A761" />
<rect x="35" y="32" width="2" height="1" fill="#A6885F" />
<rect x="37" y="32" width="2" height="1" fill="#F1D29D" />
<rect x="39" y="32" width="1" height="3" fill="#A6885F" />
<rect x="40" y="32" width="1" height="2" fill="#CAA97D" />
<rect x="41" y="32" width="1" height="1" fill="#F0D29D" />
<rect x="42" y="32" width="1" height="1" fill="#CAA97D" />
<rect x="43" y="32" width="2" height="1" fill="#2F2319" />
<rect x="46" y="32" width="1" height="1" fill="#483321" />
<rect x="47" y="32" width="1" height="1" fill="#F1D29D" />
<rect x="51" y="32" width="1" height="1" fill="#F1D29D" />
<rect x="64" y="32" width="1" height="17" fill="#D29F56" />
<rect x="65" y="32" width="13" height="1" fill="#F0D29D" />
<rect x="108" y="32" width="1" height="4" fill="#D29F56" />
<rect x="109" y="32" width="4" height="1" fill="#F0D29D" />
<rect x="17" y="33" width="1" height="1" fill="#2A2D30" />
<rect x="18" y="33" width="3" height="1" fill="#85633F" />
<rect x="21" y="33" width="2" height="3" fill="#B78D54" />
<rect x="27" y="33" width="3" height="1" fill="#D6A55C" />
<rect x="30" y="33" width="2" height="1" fill="#6E5136" />
<rect x="32" y="33" width="2" height="1" fill="#D9A761" />
<rect x="34" y="33" width="1" height="2" fill="#D6A55C" />
<rect x="35" y="33" width="1" height="1" fill="#A6885F" />
<rect x="36" y="33" width="2" height="2" fill="#F1D29D" />
<rect x="38" y="33" width="1" height="2" fill="#A6885F" />
<rect x="41" y="33" width="1" height="1" fill="#CAA97D" />
<rect x="42" y="33" width="1" height="1" fill="#4C3928" />
<rect x="43" y="33" width="2" height="1" fill="#F0D29D" />
<rect x="45" y="33" width="1" height="1" fill="#483321" />
<rect x="48" y="33" width="1" height="1" fill="#F1D29D" />
<rect x="65" y="33" width="1" height="17" fill="#F0D29D" />
<rect x="101" y="33" width="1" height="1" fill="#F0D29D" />
<rect x="109" y="33" width="1" height="4" fill="#F0D29D" />
<rect x="16" y="34" width="1" height="1" fill="#62462D" />
<rect x="17" y="34" width="3" height="1" fill="#85633F" />
<rect x="20" y="34" width="1" height="3" fill="#B78D54" />
<rect x="23" y="34" width="2" height="1" fill="#B78D54" />
<rect x="25" y="34" width="3" height="4" fill="#B07E42" />
<rect x="28" y="34" width="4" height="1" fill="#D6A55C" />
<rect x="32" y="34" width="2" height="1" fill="#6E5136" />
<rect x="35" y="34" width="1" height="1" fill="#D6A55C" />
<rect x="40" y="34" width="4" height="1" fill="#A6885F" />
<rect x="44" y="34" width="1" height="1" fill="#5A4029" />
<rect x="100" y="34" width="3" height="1" fill="#D29F56" />
<rect x="15" y="35" width="1" height="1" fill="#704F33" />
<rect x="16" y="35" width="2" height="1" fill="#85633F" />
<rect x="18" y="35" width="2" height="2" fill="#B78D54" />
<rect x="23" y="35" width="1" height="8" fill="#D6A55C" />
<rect x="24" y="35" width="1" height="4" fill="#D29F56" />
<rect x="28" y="35" width="2" height="1" fill="#D6A55C" />
<rect x="30" y="35" width="4" height="1" fill="#D29F56" />
<rect x="34" y="35" width="1" height="1" fill="#6E5136" />
<rect x="35" y="35" width="2" height="9" fill="#E9C995" />
<rect x="37" y="35" width="1" height="1" fill="#A6885F" />
<rect x="38" y="35" width="1" height="8" fill="#E9C995" />
<rect x="39" y="35" width="1" height="2" fill="#C5A67C" />
<rect x="40" y="35" width="3" height="1" fill="#A6885F" />
<rect x="43" y="35" width="1" height="1" fill="#483321" />
<rect x="99" y="35" width="5" height="4" fill="#FFFFFF" />
<rect x="104" y="35" width="4" height="1" fill="#D29F56" />
<rect x="14" y="36" width="1" height="1" fill="#2A2D30" />
<rect x="15" y="36" width="2" height="1" fill="#85633F" />
<rect x="17" y="36" width="1" height="2" fill="#B78D54" />
<rect x="21" y="36" width="2" height="5" fill="#D6A55C" />
<rect x="28" y="36" width="1" height="5" fill="#B07E42" />
<rect x="29" y="36" width="1" height="1" fill="#D6A55C" />
<rect x="30" y="36" width="3" height="1" fill="#D29F56" />
<rect x="33" y="36" width="2" height="6" fill="#E9C995" />
<rect x="37" y="36" width="1" height="7" fill="#E9C995" />
<rect x="40" y="36" width="2" height="1" fill="#A6885F" />
<rect x="42" y="36" width="1" height="1" fill="#5A4029" />
<rect x="104" y="36" width="1" height="4" fill="#D29F56" />
<rect x="105" y="36" width="4" height="1" fill="#F0D29D" />
<rect x="14" y="37" width="1" height="1" fill="#62462D" />
<rect x="15" y="37" width="1" height="1" fill="#85633F" />
<rect x="16" y="37" width="1" height="2" fill="#B78D54" />
<rect x="18" y="37" width="1" height="1" fill="#B78D54" />
<rect x="19" y="37" width="2" height="5" fill="#D6A55C" />
<rect x="29" y="37" width="2" height="1" fill="#D29F56" />
<rect x="31" y="37" width="2" height="3" fill="#E9C995" />
<rect x="39" y="37" width="1" height="4" fill="#E9C995" />
<rect x="40" y="37" width="2" height="1" fill="#C5A67C" />
<rect x="42" y="37" width="1" height="3" fill="#C79955" />
<rect x="43" y="37" width="1" height="1" fill="#483321" />
<rect x="105" y="37" width="1" height="2" fill="#F0D29D" />
<rect x="13" y="38" width="1" height="2" fill="#704F33" />
<rect x="14" y="38" width="1" height="2" fill="#85633F" />
<rect x="15" y="38" width="1" height="2" fill="#B78D54" />
<rect x="17" y="38" width="1" height="1" fill="#B18044" />
<rect x="18" y="38" width="1" height="6" fill="#D6A55C" />
<rect x="25" y="38" width="1" height="1" fill="#D6A55C" />
<rect x="26" y="38" width="2" height="1" fill="#B07E42" />
<rect x="29" y="38" width="1" height="4" fill="#B07E42" />
<rect x="30" y="38" width="1" height="1" fill="#E9C995" />
<rect x="40" y="38" width="1" height="3" fill="#E9C995" />
<rect x="41" y="38" width="1" height="2" fill="#F4CCA1" />
<rect x="43" y="38" width="1" height="2" fill="#5A4029" />
<rect x="106" y="38" width="4" height="1" fill="#F0D29D" />
<rect x="16" y="39" width="1" height="1" fill="#B18044" />
<rect x="17" y="39" width="1" height="6" fill="#D6A55C" />
<rect x="24" y="39" width="1" height="3" fill="#D6A55C" />
<rect x="25" y="39" width="2" height="1" fill="#D29F56" />
<rect x="27" y="39" width="1" height="1" fill="#B07E42" />
<rect x="30" y="39" width="1" height="1" fill="#D6A55C" />
<rect x="99" y="39" width="5" height="1" fill="#D29F56" />
<rect x="105" y="39" width="4" height="1" fill="#D29F56" />
<rect x="109" y="39" width="1" height="4" fill="#F0D29D" />
<rect x="12" y="40" width="1" height="3" fill="#2A2D30" />
<rect x="13" y="40" width="1" height="5" fill="#85633F" />
<rect x="14" y="40" width="2" height="1" fill="#B18044" />
<rect x="16" y="40" width="1" height="4" fill="#D6A55C" />
<rect x="25" y="40" width="1" height="2" fill="#D6A55C" />
<rect x="26" y="40" width="2" height="1" fill="#D29F56" />
<rect x="30" y="40" width="1" height="3" fill="#B07E42" />
<rect x="31" y="40" width="2" height="2" fill="#D6A55C" />
<rect x="41" y="40" width="1" height="1" fill="#C5A67C" />
<rect x="42" y="40" width="1" height="2" fill="#483321" />
<rect x="99" y="40" width="1" height="9" fill="#D29F56" />
<rect x="100" y="40" width="3" height="1" fill="#F0D29D" />
<rect x="103" y="40" width="1" height="5" fill="#D29F56" />
<rect x="104" y="40" width="4" height="4" fill="#FFFFFF" />
<rect x="108" y="40" width="1" height="4" fill="#D29F56" />
<rect x="14" y="41" width="1" height="3" fill="#B18044" />
<rect x="15" y="41" width="1" height="1" fill="#D6A55C" />
<rect x="21" y="41" width="1" height="1" fill="#C3A57B" />
<rect x="22" y="41" width="1" height="1" fill="#D6A55C" />
<rect x="26" y="41" width="2" height="1" fill="#C79955" />
<rect x="28" y="41" width="1" height="1" fill="#2A2D30" />
<rect x="39" y="41" width="2" height="2" fill="#C5A67C" />
<rect x="41" y="41" width="1" height="2" fill="#C79955" />
<rect x="100" y="41" width="1" height="9" fill="#F0D29D" />
<rect x="102" y="41" width="1" height="5" fill="#F0D29D" />
<rect x="15" y="42" width="1" height="3" fill="#B18044" />
<rect x="19" y="42" width="1" height="1" fill="#D6A55C" />
<rect x="20" y="42" width="1" height="1" fill="#D6A45B" />
<rect x="21" y="42" width="1" height="4" fill="#F3D4A0" />
<rect x="22" y="42" width="1" height="1" fill="#D6A45B" />
<rect x="24" y="42" width="2" height="1" fill="#C79955" />
<rect x="26" y="42" width="1" height="5" fill="#A6885F" />
<rect x="27" y="42" width="1" height="5" fill="#2A2D30" />
<rect x="29" y="42" width="1" height="1" fill="#2A2D30" />
<rect x="31" y="42" width="1" height="2" fill="#B07E42" />
<rect x="32" y="42" width="2" height="1" fill="#D6A55C" />
<rect x="34" y="42" width="1" height="1" fill="#E9C995" />
<rect x="42" y="42" width="1" height="1" fill="#5A4029" />
<rect x="110" y="42" width="4" height="1" fill="#F0D29D" />
<rect x="123" y="42" width="9" height="1" fill="#F0D29D" />
<rect x="12" y="43" width="1" height="2" fill="#704F33" />
<rect x="19" y="43" width="1" height="1" fill="#D6A45B" />
<rect x="20" y="43" width="1" height="3" fill="#F3D4A0" />
<rect x="22" y="43" width="1" height="2" fill="#F3D4A0" />
<rect x="23" y="43" width="1" height="1" fill="#C3A57B" />
<rect x="24" y="43" width="2" height="1" fill="#A6885F" />
<rect x="30" y="43" width="1" height="1" fill="#2A2D30" />
<rect x="32" y="43" width="1" height="3" fill="#B07E42" />
<rect x="33" y="43" width="2" height="1" fill="#D6A55C" />
<rect x="37" y="43" width="2" height="1" fill="#C5A67C" />
<rect x="39" y="43" width="1" height="3" fill="#D1B082" />
<rect x="40" y="43" width="1" height="1" fill="#C79955" />
<rect x="41" y="43" width="1" height="1" fill="#5A4029" />
<rect x="109" y="43" width="4" height="1" fill="#D29F56" />
<rect x="113" y="43" width="1" height="7" fill="#F0D29D" />
<rect x="122" y="43" width="11" height="1" fill="#D29F56" />
<rect x="14" y="44" width="1" height="1" fill="#6E5136" />
<rect x="16" y="44" width="1" height="2" fill="#B18044" />
<rect x="18" y="44" width="1" height="1" fill="#D6A45B" />
<rect x="19" y="44" width="1" height="1" fill="#F3D4A0" />
<rect x="23" y="44" width="1" height="1" fill="#A6885F" />
<rect x="24" y="44" width="2" height="2" fill="#C3A57B" />
<rect x="31" y="44" width="1" height="2" fill="#2A2D30" />
<rect x="33" y="44" width="1" height="2" fill="#B07E42" />
<rect x="34" y="44" width="1" height="1" fill="#D6A55C" />
<rect x="35" y="44" width="2" height="1" fill="#C5A67C" />
<rect x="37" y="44" width="2" height="1" fill="#F4CCA1" />
<rect x="40" y="44" width="1" height="2" fill="#5A4029" />
<rect x="104" y="44" width="4" height="1" fill="#D29F56" />
<rect x="108" y="44" width="4" height="4" fill="#FFFFFF" />
<rect x="112" y="44" width="1" height="5" fill="#D29F56" />
<rect x="117" y="44" width="4" height="1" fill="#D29F56" />
<rect x="121" y="44" width="13" height="4" fill="#FFFFFF" />
<rect x="13" y="45" width="1" height="1" fill="#704F33" />
<rect x="14" y="45" width="1" height="1" fill="#85633F" />
<rect x="15" y="45" width="1" height="1" fill="#6E5136" />
<rect x="17" y="45" width="1" height="2" fill="#B18044" />
<rect x="18" y="45" width="2" height="1" fill="#C79955" />
<rect x="22" y="45" width="2" height="1" fill="#C3A57B" />
<rect x="34" y="45" width="1" height="1" fill="#B07E42" />
<rect x="35" y="45" width="1" height="1" fill="#C5A67C" />
<rect x="36" y="45" width="1" height="1" fill="#F4CCA1" />
<rect x="37" y="45" width="1" height="1" fill="#2A2D30" />
<rect x="38" y="45" width="1" height="1" fill="#F4CCA1" />
<rect x="103" y="45" width="4" height="1" fill="#F0D29D" />
<rect x="107" y="45" width="1" height="4" fill="#D29F56" />
<rect x="116" y="45" width="4" height="1" fill="#F0D29D" />
<rect x="120" y="45" width="1" height="4" fill="#D29F56" />
<rect x="14" y="46" width="1" height="1" fill="#704F33" />
<rect x="15" y="46" width="1" height="1" fill="#85633F" />
<rect x="16" y="46" width="1" height="2" fill="#6E5136" />
<rect x="18" y="46" width="1" height="1" fill="#B18044" />
<rect x="19" y="46" width="1" height="1" fill="#C79955" />
<rect x="20" y="46" width="1" height="2" fill="#B18044" />
<rect x="21" y="46" width="2" height="1" fill="#85633F" />
<rect x="23" y="46" width="2" height="1" fill="#F3D4A0" />
<rect x="25" y="46" width="1" height="1" fill="#85633F" />
<rect x="32" y="46" width="1" height="1" fill="#2A2D30" />
<rect x="33" y="46" width="2" height="1" fill="#D1B082" />
<rect x="35" y="46" width="1" height="2" fill="#E4C493" />
<rect x="36" y="46" width="1" height="1" fill="#2A2D30" />
<rect x="38" y="46" width="1" height="1" fill="#2A2D30" />
<rect x="39" y="46" width="1" height="1" fill="#F4CCA1" />
<rect x="40" y="46" width="1" height="1" fill="#D1B082" />
<rect x="41" y="46" width="1" height="1" fill="#5A4029" />
<rect x="106" y="46" width="1" height="4" fill="#F0D29D" />
<rect x="119" y="46" width="1" height="4" fill="#F0D29D" />
<rect x="15" y="47" width="1" height="1" fill="#704F33" />
<rect x="17" y="47" width="1" height="1" fill="#6E5136" />
<rect x="18" y="47" width="1" height="1" fill="#85633F" />
<rect x="19" y="47" width="1" height="1" fill="#B18044" />
<rect x="21" y="47" width="1" height="1" fill="#A6885F" />
<rect x="22" y="47" width="1" height="1" fill="#F3D4A0" />
<rect x="23" y="47" width="2" height="1" fill="#A6885F" />
<rect x="25" y="47" width="1" height="1" fill="#F3D4A0" />
<rect x="26" y="47" width="1" height="1" fill="#85633F" />
<rect x="27" y="47" width="1" height="2" fill="#D1B082" />
<rect x="28" y="47" width="1" height="3" fill="#2A2D30" />
<rect x="33" y="47" width="1" height="1" fill="#2A2D30" />
<rect x="34" y="47" width="1" height="1" fill="#E4C493" />
<rect x="36" y="47" width="1" height="2" fill="#D1B082" />
<rect x="37" y="47" width="1" height="3" fill="#2A2D30" />
<rect x="39" y="47" width="1" height="1" fill="#2A2D30" />
<rect x="40" y="47" width="1" height="1" fill="#9A855F" />
<rect x="41" y="47" width="1" height="1" fill="#D1B082" />
<rect x="42" y="47" width="1" height="2" fill="#2A2D30" />
<rect x="16" y="48" width="1" height="1" fill="#65472E" />
<rect x="17" y="48" width="1" height="1" fill="#85633F" />
<rect x="18" y="48" width="6" height="1" fill="#6E5136" />
<rect x="24" y="48" width="1" height="1" fill="#F3D4A0" />
<rect x="25" y="48" width="1" height="1" fill="#E4C493" />
<rect x="26" y="48" width="1" height="1" fill="#D1B082" />
<rect x="34" y="48" width="1" height="1" fill="#2A2D30" />
<rect x="35" y="48" width="1" height="1" fill="#9A855F" />
<rect x="40" y="48" width="2" height="1" fill="#2A2D30" />
<rect x="60" y="48" width="4" height="1" fill="#D29F56" />
<rect x="86" y="48" width="4" height="1" fill="#D29F56" />
<rect x="95" y="48" width="4" height="1" fill="#D29F56" />
<rect x="108" y="48" width="4" height="1" fill="#D29F56" />
<rect x="121" y="48" width="17" height="1" fill="#D29F56" />
<rect x="17" y="49" width="4" height="1" fill="#65472E" />
<rect x="21" y="49" width="4" height="1" fill="#2A2D30" />
<rect x="25" y="49" width="3" height="1" fill="#85633F" />
<rect x="35" y="49" width="2" height="1" fill="#2A2D30" />
<rect x="59" y="49" width="6" height="1" fill="#F0D29D" />
<rect x="85" y="49" width="6" height="1" fill="#F0D29D" />
<rect x="94" y="49" width="6" height="1" fill="#F0D29D" />
<rect x="107" y="49" width="6" height="1" fill="#F0D29D" />
<rect x="120" y="49" width="19" height="1" fill="#F0D29D" />
<rect x="25" y="50" width="3" height="1" fill="#2A2D30" />
<rect x="28" y="50" width="1" height="1" fill="#272C33" />
</svg>